# xmcd
#
# Track frame offsets: 
#        150
#        13346
#        26253
#        38353
#        50448
#        63529
#        74932
#        86782
#        97785
#        110264
#        127353
#        140298
#        153632
#        165809
#        180492
#        191914
#        205049
#        218312
#        230757
#        245181
#        257236
#        269999
#
# Disc length: 3768 seconds
#
# Revision: 0
# Processed by: cddbd v1.5.2PL0 Copyright (c) Steve Scherf et al.
# Submitted via: ExactAudioCopy v0.95b4
#
DISCID=450eb616
DTITLE=Sister Rosetta Tharpe - Up Above My Head
DYEAR=2008
DGENRE=Blues
TTITLE0=When I Move To The Sky
TTITLE1=Strange Things Happening Every Day
TTITLE2=This Train
TTITLE3=I Claim Jesus First
TTITLE4=Can't No Grave Hold My Body Down 
TTITLE5=Up Above My Head I Hear Music In The Air
TTITLE6=Didn't It Rain
TTITLE7=Don't Take Everybody To Be Your Friend 
TTITLE8=Everybody's Gonna Have A Wonderful Time Up There 
TTITLE9=Down By The Riverside
TTITLE10=Precious Memories 
TTITLE11=Oh When I Come To The End Of My Journey 
TTITLE12=Heaven Is Not My Home 
TTITLE13=Were You There When They Crucified My Lord 
TTITLE14=What Is The Soul Of Man
TTITLE15=Singing In My Soul
TTITLE16=Two Little Fishes And Five Loaves Of Bread 
TTITLE17=I Heard My Mother Call My Name
TTITLE18=My Journey To The Sky
TTITLE19=Family Prayer 
TTITLE20=Jesus Is Here Today 
TTITLE21=My Lord And I 
EXTD=
EXTT0=
EXTT1=
EXTT2=
EXTT3=
EXTT4=
EXTT5=
EXTT6=
EXTT7=
EXTT8=
EXTT9=
EXTT10=
EXTT11=
EXTT12=
EXTT13=
EXTT14=
EXTT15=
EXTT16=
EXTT17=
EXTT18=
EXTT19=
EXTT20=
EXTT21=
PLAYORDER=
